<?xml version="1.0" encoding="UTF-8"?><svg width="32px" height="26px" viewBox="0 0 32 26" version="1.1" xmlns="http://www.w3.org/2000/svg" xmlns:xlink="http://www.w3.org/1999/xlink"><title>juicy-crown</title><desc>Created with Sketch.</desc><g id="Page-1" stroke="none" stroke-width="1" fill="none" fill-rule="evenodd"><g id="juicy-crown" transform="translate(1.000000, 1.000000)" fill-rule="nonzero"><path d="M7.756,6.993 L12.632,1.882 C13.2378543,1.2469304 14.0729018,0.881084131 14.9504851,0.866238503 C15.8280684,0.851392876 16.6750122,1.18878575 17.302,1.803 L22.594,6.989 L25.437,4.728 C26.2761293,4.06050369 27.4491145,4.00759997 28.3449252,4.59684738 C29.2407359,5.1860948 29.656646,6.28414389 29.376,7.319 L25.67,20.971 C25.3391114,22.1908879 24.2319674,23.0380001 22.968,23.0380001 L6.908,23.0380001 C5.64366103,23.0382922 4.53598585,22.1912465 4.205,20.971 L0.555,7.518 C0.260731262,6.43355938 0.685695545,5.28174032 1.61378175,4.64828824 C2.54186795,4.01483615 3.76934805,4.03880272 4.672,4.708 L7.755,6.993 L7.756,6.993 Z" id="Path" stroke="#FFFFFF" stroke-width="2" fill="#FFC800"/><path d="M6.16,9.002 L7.259,9.944 C7.44099992,10.1000604 7.6777443,10.1770545 7.91672577,10.157906 C8.15570725,10.1387574 8.37717145,10.025049 8.532,9.842 L11.249,6.63 C11.5471503,6.27645891 12.0293501,6.13807859 12.4696049,6.27971432 C12.9098596,6.42135006 13.22092,6.81493261 13.257,7.276 L14.193,19.063 C14.218112,19.3800921 14.1096022,19.6932559 13.893686,19.9268329 C13.6777697,20.1604098 13.3740849,20.2931557 13.056,20.2930001 L8.576,20.2930001 C8.05674812,20.2927533 7.60326841,19.9416457 7.473,19.439 L4.965,9.747 C4.88514303,9.43484923 5.016732,9.10693867 5.29021683,8.93658232 C5.56370166,8.76622597 5.91603726,8.79269522 6.161,9.002 L6.16,9.002 Z" id="Path" fill="#FFDE00"/></g></g></svg>