<svg width="53" height="59" viewBox="0 0 53 59" xmlns="http://www.w3.org/2000/svg"><title>Gold Blank</title><g fill="none"><path d="M9.021 3.404H43.98c4.98 0 9.02 4.064 9.02 9.076v21.557C53 47.824 41.893 59 28.191 59H24.81C11.107 59 0 47.824 0 34.038V12.481c0-5.013 4.039-9.077 9.021-9.077z" fill="#FFC100"/><path d="M9.021 3.404H43.98c4.98 0 9.02 4.064 9.02 9.076v14.182c0 12.846-10.35 23.26-23.117 23.26h-6.766C10.35 49.923 0 39.51 0 26.663V12.481c0-5.013 4.039-9.077 9.021-9.077z" fill="#FEC701"/><path d="M32.442 3.404H43.98c4.98 0 9.02 4.064 9.02 9.076v5.54L14.505 56.751A24.97 24.97 0 0 1 .073 35.972l32.37-32.568z" fill="#FFD040"/><path d="M32.442 3.404H43.98c4.98 0 9.02 4.064 9.02 9.076v5.54L18.916 52.313c-5.694-2.018-9.456-4.127-11.285-6.325-1.828-2.199-3.395-6.496-4.7-12.892L32.442 3.404z" fill="#FED540"/><path d="M9.021 5.673c-1.868 0-3.383 1.524-3.383 3.404v21.558c0 10.652 8.583 19.288 19.17 19.288h3.383c10.588 0 19.17-8.636 19.17-19.288V9.077c0-1.88-1.514-3.404-3.382-3.404H9.02zm0-5.673H43.98C48.96 0 53 4.064 53 9.077v21.558c0 13.785-11.107 24.961-24.809 24.961H24.81C11.107 55.596 0 44.42 0 30.635V9.077C0 4.064 4.039 0 9.021 0z" fill="#FEE333"/><path d="M5.638 30.373v.262c0 9.54 6.885 17.463 15.928 19.013l-4.635 4.664C8.598 51.506 2.235 44.37.483 35.56l5.155-5.187zm41.724-6.68V9.077c0-1.88-1.515-3.404-3.383-3.404H30.187L35.825 0h8.154C48.96 0 53 4.064 53 9.077v8.943l-5.638 5.673z" fill="#FEEA66"/></g></svg>