<svg width="40" height="40" viewBox="0 0 40 40" fill="none" xmlns="http://www.w3.org/2000/svg"><mask id="path-1-outside-1" maskUnits="userSpaceOnUse" x="-0.365479" y="2" width="41" height="36" fill="black"><rect fill="white" x="-0.365479" y="2" width="41" height="36"/><path fill-rule="evenodd" clip-rule="evenodd" d="M20 10.9541C18.632 10.9541 17.523 9.84511 17.523 8.47706C17.523 7.10902 18.632 6 20 6C21.3681 6 22.4771 7.10902 22.4771 8.47706C22.4771 9.84511 21.3681 10.9541 20 10.9541ZM36.2635 21.2501C36.7582 19.7007 35.3319 18.3612 33.924 18.6911C34.7161 15.2774 32.1253 11.945 28.5515 11.945H11.4486C7.87683 11.945 5.28694 15.2736 6.07474 18.6853C4.66651 18.3548 3.23997 19.6946 3.73465 21.2441L7.44359 32.8615C7.73686 33.7801 8.59047 34.4037 9.55475 34.4037H30.4453C31.4096 34.4037 32.2632 33.7801 32.5565 32.8615L36.2635 21.2501Z"/></mask><path fill-rule="evenodd" clip-rule="evenodd" d="M20 10.9541C18.632 10.9541 17.523 9.84511 17.523 8.47706C17.523 7.10902 18.632 6 20 6C21.3681 6 22.4771 7.10902 22.4771 8.47706C22.4771 9.84511 21.3681 10.9541 20 10.9541ZM36.2635 21.2501C36.7582 19.7007 35.3319 18.3612 33.924 18.6911C34.7161 15.2774 32.1253 11.945 28.5515 11.945H11.4486C7.87683 11.945 5.28694 15.2736 6.07474 18.6853C4.66651 18.3548 3.23997 19.6946 3.73465 21.2441L7.44359 32.8615C7.73686 33.7801 8.59047 34.4037 9.55475 34.4037H30.4453C31.4096 34.4037 32.2632 33.7801 32.5565 32.8615L36.2635 21.2501Z" fill="#D6DAFE"/><path d="M33.924 18.6911L30.615 17.9233L29.3802 23.2448L34.699 21.9985L33.924 18.6911ZM36.2635 21.2501L33.0275 20.217L33.0275 20.217L36.2635 21.2501ZM6.07474 18.6853L5.29873 21.9924L10.6126 23.2393L9.38457 17.921L6.07474 18.6853ZM3.73465 21.2441L6.97067 20.211L3.73465 21.2441ZM7.44359 32.8615L4.20757 33.8947H4.20757L7.44359 32.8615ZM32.5565 32.8615L29.3205 31.8284L32.5565 32.8615ZM14.126 8.47706C14.126 11.7212 16.7559 14.3511 20 14.3511V7.5572C20.5081 7.5572 20.9199 7.96904 20.9199 8.47706H14.126ZM20 2.60307C16.7559 2.60307 14.126 5.23295 14.126 8.47706H20.9199C20.9199 8.98509 20.5081 9.39693 20 9.39693V2.60307ZM25.874 8.47706C25.874 5.23295 23.2442 2.60307 20 2.60307V9.39693C19.492 9.39693 19.0802 8.98509 19.0802 8.47706H25.874ZM20 14.3511C23.2442 14.3511 25.874 11.7212 25.874 8.47706H19.0802C19.0802 7.96904 19.492 7.5572 20 7.5572V14.3511ZM34.699 21.9985C34.1257 22.1328 33.6408 21.9125 33.364 21.6259C33.0402 21.2907 32.8634 20.731 33.0275 20.217L39.4995 22.2832C40.8581 18.0279 36.9268 14.4986 33.149 15.3838L34.699 21.9985ZM28.5515 15.3419C29.9194 15.3419 30.9174 16.6199 30.615 17.9233L37.233 19.4589C38.5148 13.9348 34.3312 8.54802 28.5515 8.54802V15.3419ZM11.4486 15.3419H28.5515V8.54802H11.4486V15.3419ZM9.38457 17.921C9.0838 16.6185 10.0815 15.3419 11.4486 15.3419V8.54802C5.67212 8.54802 1.49007 13.9287 2.7649 19.4496L9.38457 17.921ZM6.97067 20.211C7.13481 20.7251 6.95799 21.2848 6.63409 21.62C6.35722 21.9066 5.87212 22.1269 5.29873 21.9924L6.85075 15.3782C3.07173 14.4914 -0.859885 18.0219 0.498639 22.2772L6.97067 20.211ZM10.6796 31.8284L6.97067 20.211L0.498639 22.2772L4.20757 33.8947L10.6796 31.8284ZM9.55475 31.0068C10.0685 31.0068 10.5233 31.339 10.6796 31.8284L4.20757 33.8947C4.95037 36.2213 7.1124 37.8006 9.55475 37.8006V31.0068ZM30.4453 31.0068H9.55475V37.8006H30.4453V31.0068ZM29.3205 31.8284C29.4767 31.339 29.9316 31.0068 30.4453 31.0068V37.8006C32.8877 37.8006 35.0497 36.2213 35.7925 33.8947L29.3205 31.8284ZM33.0275 20.217L29.3205 31.8284L35.7925 33.8947L39.4995 22.2832L33.0275 20.217Z" fill="white" mask="url(#path-1-outside-1)"/><path d="M33.8188 19.0805C34.9115 15.5355 32.2611 11.9449 28.5514 11.9449H11.4485C7.73887 11.9449 5.08838 15.5355 6.18111 19.0805L7.49274 23.3357C8.20522 25.6471 10.3414 27.224 12.7601 27.224H27.2398C29.6586 27.224 31.7947 25.6471 32.5072 23.3357L33.8188 19.0805Z" fill="#5C6CFC"/><path d="M3.7346 21.2441C3.16062 19.4463 5.17324 17.9307 6.74258 18.979L11.2336 21.9792L18.439 14.8176C19.3028 13.959 20.6977 13.9585 21.5622 14.8164L28.7801 21.9792L33.2544 18.9858C34.8236 17.936 36.8377 19.4516 36.2635 21.2502L32.5565 32.8616C32.2632 33.7802 31.4096 34.4037 30.4453 34.4037H9.5547C8.59042 34.4037 7.73681 33.7802 7.44354 32.8616L3.7346 21.2441Z" fill="#A7A0FF"/><ellipse rx="2.47706" ry="2.47706" transform="matrix(-1 0 0 1 20 8.47706)" fill="#A7A0FF"/><path d="M11.3577 24.5504L15.1754 21.0321C15.8325 20.4266 16.893 20.9242 16.8472 21.8165L16.3441 31.626C16.326 31.9795 16.0341 32.2568 15.6802 32.2568H11.0933C10.7942 32.2568 10.5319 32.0571 10.4524 31.7688L8.57206 24.9526C8.33766 24.1029 9.24007 23.3891 10.0129 23.813L11.3577 24.5504Z" fill="#BFAFFF"/><path d="M30.1475 24.859C30.3811 24.0652 30.9331 23.4035 31.6722 23.0314L33.0507 22.3373C33.5747 22.0735 34.1587 22.5683 33.9846 23.1285L31.2921 31.7894C31.2056 32.0675 30.9483 32.2569 30.6572 32.2569H28.8593C28.4154 32.2569 28.0961 31.8302 28.2215 31.4044L30.1475 24.859Z" fill="#AFB5FF"/><rect width="6.43589" height="6.43589" rx="1.10807" transform="matrix(-0.707107 0.707107 0.707107 0.707107 20.0095 21.7294)" fill="#5C6CFC"/><path d="M19.2391 23.6791C19.5183 23.3999 19.9957 23.5977 19.9957 23.9925V25.9471C19.9957 26.1919 19.7973 26.3904 19.5525 26.3904H17.5979C17.203 26.3904 17.0053 25.913 17.2845 25.6337L19.2391 23.6791Z" fill="#D6DAFE"/></svg>