<svg width="53" height="59" viewBox="0 0 53 59" xmlns="http://www.w3.org/2000/svg"><title>Locked</title><g fill="none" fill-rule="evenodd"><g fill-rule="nonzero"><path d="M9.021 3.404H43.98c4.98 0 9.02 4.064 9.02 9.076v21.557C53 47.824 41.893 59 28.191 59H24.81C11.107 59 0 47.824 0 34.038V12.481c0-5.013 4.039-9.077 9.021-9.077z" fill="#E3E3E3"/><path d="M9.021 3.404H43.98c4.98 0 9.02 4.064 9.02 9.076v14.182c0 12.846-10.35 23.26-23.117 23.26h-6.766C10.35 49.923 0 39.51 0 26.663V12.481c0-5.013 4.039-9.077 9.021-9.077z" fill="#E5E5E5"/><path d="M9.021 5.673c-1.868 0-3.383 1.524-3.383 3.404v21.558c0 10.652 8.583 19.288 19.17 19.288h3.383c10.588 0 19.17-8.636 19.17-19.288V9.077c0-1.88-1.514-3.404-3.382-3.404H9.02zm0-5.673H43.98C48.96 0 53 4.064 53 9.077v21.558c0 13.785-11.107 24.961-24.809 24.961H24.81C11.107 55.596 0 44.42 0 30.635V9.077C0 4.064 4.039 0 9.021 0z" fill="#EFEFEF"/></g><g transform="translate(18.014 15.177)" fill="#CFCFCF" opacity=".8"><ellipse cx="8.618" cy="8.002" rx="8.348" ry="7.998"/><path d="M4.967 11.71c2.016-3.863 5.285-3.864 7.3 0l3.013 5.771c2.016 3.863.116 6.995-4.235 6.995H6.19c-4.355 0-6.251-3.132-4.235-6.995l3.011-5.771z"/></g></g></svg>